name C:\Users\u0150099\Documents\master_thesis\3dpredictsim\Results\debug\Fal_s1_mtj_sc_cspx10_oy_MTc2_MTPm_k1_d01_MTJm_nl_MG_exp_v2_table_d01_PF_Natali2010_ls146_FDB_ig21.mot
datacolumns 130
datarows 4
range 1.03702804 1.06813888
endheader
time	pelvis_tilt	pelvis_list	pelvis_rotation	pelvis_tx	pelvis_ty	pelvis_tz	hip_flexion_l	hip_adduction_l	hip_rotation_l	hip_flexion_r	hip_adduction_r	hip_rotation_r	knee_angle_l	knee_angle_r	ankle_angle_l	ankle_angle_r	subtalar_angle_l	subtalar_angle_r	mtj_angle_l	mtj_angle_r	mtp_angle_l	mtp_angle_r	lumbar_extension	lumbar_bending	lumbar_rotation	arm_flex_l	arm_add_l	arm_rot_l	arm_flex_r	arm_add_r	arm_rot_r	elbow_flex_l	elbow_flex_r	pro_sup_l	pro_sup_r	glut_med1_l/activation	glut_med2_l/activation	glut_med3_l/activation	glut_min1_l/activation	glut_min2_l/activation	glut_min3_l/activation	semimem_l/activation	semiten_l/activation	bifemlh_l/activation	bifemsh_l/activation	sar_l/activation	add_long_l/activation	add_brev_l/activation	add_mag1_l/activation	add_mag2_l/activation	add_mag3_l/activation	tfl_l/activation	pect_l/activation	grac_l/activation	glut_max1_l/activation	glut_max2_l/activation	glut_max3_l/activation	iliacus_l/activation	psoas_l/activation	quad_fem_l/activation	gem_l/activation	peri_l/activation	rect_fem_l/activation	vas_med_l/activation	vas_int_l/activation	vas_lat_l/activation	med_gas_l/activation	lat_gas_l/activation	soleus_l/activation	tib_post_l/activation	flex_dig_l/activation	flex_hal_l/activation	tib_ant_l/activation	per_brev_l/activation	per_long_l/activation	per_tert_l/activation	ext_dig_l/activation	ext_hal_l/activation	FDB_l/activation	ercspn_l/activation	intobl_l/activation	extobl_l/activation	glut_med1_r/activation	glut_med2_r/activation	glut_med3_r/activation	glut_min1_r/activation	glut_min2_r/activation	glut_min3_r/activation	semimem_r/activation	semiten_r/activation	bifemlh_r/activation	bifemsh_r/activation	sar_r/activation	add_long_r/activation	add_brev_r/activation	add_mag1_r/activation	add_mag2_r/activation	add_mag3_r/activation	tfl_r/activation	pect_r/activation	grac_r/activation	glut_max1_r/activation	glut_max2_r/activation	glut_max3_r/activation	iliacus_r/activation	psoas_r/activation	quad_fem_r/activation	gem_r/activation	peri_r/activation	rect_fem_r/activation	vas_med_r/activation	vas_int_r/activation	vas_lat_r/activation	med_gas_r/activation	lat_gas_r/activation	soleus_r/activation	tib_post_r/activation	flex_dig_r/activation	flex_hal_r/activation	tib_ant_r/activation	per_brev_r/activation	per_long_r/activation	per_tert_r/activation	ext_dig_r/activation	ext_hal_r/activation	FDB_r/activation	ercspn_r/activation	intobl_r/activation	extobl_r/activation	
          1.03702804	         -2.92546614	         -1.85045096	          2.50122096	          1.37924730	          0.91189934	         -0.00309071	        -12.03214993	          2.55427163	          5.68191806	         29.42160696	          3.70023379	         -3.24493994	        -17.30654147	        -14.32624831	          2.40020736	          8.14114973	         -9.57356358	         -6.29204387	         -0.61266256	          2.03728596	         25.08783168	         -2.47865267	         -4.27373255	          0.83985185	         -1.66851374	          4.43437398	        -13.74892671	         19.27122972	         -3.26759874	        -13.50792822	          7.20119635	         32.57813259	         25.93838283	         86.51662706	         86.51662706	          0.28453089	          0.05000041	          0.05000019	          0.55158364	          0.15967102	          0.06788990	          0.05000274	          0.05000036	          0.05000029	          0.05000046	          0.05000607	          0.05017463	          0.05000197	          0.05000212	          0.05000495	          0.05000347	          0.41487343	          0.05003762	          0.05000091	          0.05000325	          0.05000199	          0.05000177	          0.43010096	          0.61932487	          0.05000022	          0.05000077	          0.05000032	          0.52095794	          0.21633318	          0.21978398	          0.18668025	          0.39202861	          0.55710221	          0.20669893	          0.45565072	          0.39405683	          0.51384380	          0.05000002	          0.20301149	          0.42936764	          0.05000018	          0.05000010	          0.09460727	          0.74653490	          0.05000009	          0.05000012	          0.05000008	          0.05000135	          0.05858021	          0.05588627	          0.05007931	          0.05114209	          0.05012897	          0.28981064	          0.08066398	          0.34864377	          0.06799358	          0.05580398	          0.07555495	          0.10652751	          0.08649036	          0.07494069	          0.18865596	          0.05000303	          0.05000448	          0.05000394	          0.05007762	          0.07044074	          0.15916151	          0.05785170	          0.08568291	          0.08238767	          0.05059027	          0.05002634	          0.05000026	          0.05000114	          0.05000094	          0.05000070	          0.05583703	          0.05253491	          0.05561832	          0.05000038	          0.10925794	          0.05000114	          0.29649329	          0.18180717	          0.17831950	          0.30936435	          0.63476677	          0.34160075	          0.08066469	          0.07432249	          0.08671233	          0.12286231	
          1.04739832	         -2.92876283	         -1.91419105	          2.81540547	          1.39517496	          0.91068476	         -0.00290145	        -12.82355338	          2.22975586	          5.46131516	         29.30903256	          3.87756584	         -3.13647091	        -17.42651697	        -14.31497821	          1.72005200	          7.96117220	         -8.83484078	         -6.58689873	         -1.64831386	          2.10237076	         27.60954735	         -2.48728363	         -4.12699955	          0.98485029	         -1.76322452	          4.26934829	        -13.70544935	         19.37748897	         -3.90587224	        -13.47067800	          6.50097517	         33.71683208	         25.22501940	         86.51662706	         86.51662706	          0.29435509	          0.05000028	          0.05000011	          0.52629762	          0.13614086	          0.05788530	          0.05000302	          0.05000040	          0.05000030	          0.05000046	          0.05000365	          0.09458864	          0.05000266	          0.05000180	          0.05000472	          0.05000438	          0.35475943	          0.05008847	          0.05000072	          0.05000247	          0.05000155	          0.05000142	          0.36671835	          0.70290443	          0.05000014	          0.05000044	          0.05000018	          0.47623068	          0.22713988	          0.23099038	          0.19701989	          0.36723672	          0.53198393	          0.17900865	          0.42680507	          0.40857545	          0.48473426	          0.05000001	          0.17309429	          0.36609296	          0.05000018	          0.05000008	          0.08066536	          0.63652025	          0.05000005	          0.05000005	          0.05000008	          0.11582266	          0.05000063	          0.05864090	          0.05000049	          0.05000069	          0.05000209	          0.28151817	          0.06877744	          0.34004460	          0.06877742	          0.06651541	          0.07565443	          0.12153041	          0.09569822	          0.06389920	          0.21611096	          0.05000452	          0.05011793	          0.06877758	          0.05482647	          0.09763045	          0.19118561	          0.05508702	          0.08493350	          0.15751047	          0.05000138	          0.05000073	          0.05000006	          0.05000022	          0.05000020	          0.05000017	          0.05000040	          0.05000078	          0.05689398	          0.05864065	          0.09358960	          0.08066713	          0.29945807	          0.19819385	          0.18799284	          0.29572590	          0.63826935	          0.36599104	          0.06877745	          0.06906305	          0.08443371	          0.11095810	
          1.05776860	         -2.93015755	         -1.97141174	          3.12467324	          1.41140145	          0.90948021	         -0.00268562	        -13.53264886	          1.89111311	          5.21784580	         29.18706550	          4.05536559	         -2.99436936	        -17.67868643	        -14.96360255	          0.95241350	          7.46322730	         -7.99441171	         -6.87251514	         -2.80311016	          2.22713811	         30.36175055	         -2.47341811	         -3.96297973	          1.12600753	         -1.85254925	          4.03059512	        -13.65141495	         19.38224601	         -4.59116488	        -13.45269192	          5.98463432	         34.86866319	         24.56363800	         86.51662706	         86.51662706	          0.25098421	          0.05000029	          0.05000011	          0.44873907	          0.11607827	          0.05000061	          0.05000520	          0.05000063	          0.05000044	          0.05000069	          0.05000154	          0.12629586	          0.10055626	          0.05000176	          0.05000496	          0.05695984	          0.33997290	          0.05107924	          0.05000079	          0.05000222	          0.05000151	          0.05000160	          0.31267613	          0.66377811	          0.05000010	          0.05000057	          0.05000052	          0.41896341	          0.23784147	          0.24623298	          0.21412136	          0.31911784	          0.46424844	          0.15262865	          0.39738695	          0.34836761	          0.41330147	          0.05000001	          0.14758589	          0.31214285	          0.05000014	          0.05000007	          0.06877798	          0.54271804	          0.05000001	          0.05033838	          0.05000006	          0.09875454	          0.05864113	          0.05000052	          0.05864205	          0.05864187	          0.05000663	          0.24003169	          0.05864194	          0.29549340	          0.05864193	          0.06413350	          0.09710811	          0.14314674	          0.08159645	          0.13224704	          0.24188294	          0.05000154	          0.05016593	          0.05864226	          0.05000111	          0.14144695	          0.25434027	          0.06630977	          0.07675740	          0.26356162	          0.13014384	          0.07772804	          0.08066494	          0.05000016	          0.05000016	          0.05000013	          0.05000001	          0.05000002	          0.05000000	          0.05000017	          0.07979804	          0.06878027	          0.32630819	          0.23748696	          0.18706653	          0.27771320	          0.67810701	          0.36519873	          0.05864198	          0.05888553	          0.07199099	          0.09460653	
          1.06813888	         -2.92999292	         -2.02543946	          3.42728830	          1.42790796	          0.90827099	         -0.00244312	        -14.16348968	          1.53700791	          4.95270462	         29.02872984	          4.21835298	         -2.81628068	        -18.04701577	        -16.23198255	          0.08577581	          6.77843698	         -7.07581030	         -7.18940756	         -4.07215347	          2.29368154	         33.30785063	         -2.47889140	         -3.78245306	          1.26367994	         -1.93677788	          3.71896374	        -13.60346835	         19.34343275	         -5.31993707	        -13.45058340	          5.62544037	         36.04936399	         23.95923750	         86.51662706	         86.51662706	          0.22605638	          0.05000086	          0.05000059	          0.38260988	          0.09897224	          0.05000158	          0.05000150	          0.05000037	          0.05000055	          0.05000022	          0.05888151	          0.19883031	          0.18116650	          0.05864027	          0.05006536	          0.05000228	          0.28987333	          0.06883602	          0.05000299	          0.05000711	          0.05000468	          0.05000469	          0.26659793	          0.63126813	          0.05578049	          0.05000194	          0.05000025	          0.35722197	          0.20279199	          0.20994687	          0.18256819	          0.27209033	          0.39583350	          0.13013618	          0.33882524	          0.29702980	          0.35239452	          0.05000001	          0.12583661	          0.26614323	          0.05000006	          0.05000003	          0.05864239	          0.46273917	          0.05397170	          0.05864187	          0.05000023	          0.18672017	          0.05000015	          0.05000134	          0.05000027	          0.05000026	          0.05000031	          0.20465895	          0.05000007	          0.25194742	          0.05000005	          0.06818888	          0.08279863	          0.21180221	          0.15126152	          0.11276056	          0.28016951	          0.05564521	          0.06877914	          0.05000042	          0.05000079	          0.19348468	          0.29587677	          0.06877762	          0.06877753	          0.38000283	          0.11096514	          0.06627383	          0.06877765	          0.11014064	          0.09982220	          0.08659194	          0.07071972	          0.08065432	          0.07228029	          0.05000099	          0.06803856	          0.05864466	          0.40797804	          0.22104865	          0.17665337	          0.44634337	          0.70259021	          0.39315027	          0.05000007	          0.05020780	          0.06138190	          0.08066463	
